<mxfile host="app.diagrams.net" modified="2023-04-16T18:12:34.586Z" agent="Mozilla/5.0 (Windows NT 10.0; Win64; x64) AppleWebKit/537.36 (KHTML, like Gecko) Chrome/112.0.0.0 Safari/537.36 Edg/112.0.1722.39" etag="oyLIvikvEHKhLqYHmu3X" version="21.1.8" type="github">
  <diagram name="Page-1" id="-qjRj1Rl26pxZ4fKpiaX">
    <mxGraphModel dx="2313" dy="820" grid="1" gridSize="10" guides="1" tooltips="1" connect="1" arrows="1" fold="1" page="1" pageScale="1" pageWidth="1169" pageHeight="827" math="0" shadow="0">
      <root>
        <mxCell id="0" />
        <mxCell id="1" parent="0" />
        <mxCell id="vSiDD781B5HIH5-jRjLo-1" value="&quot;In hoeverre is Javascript mogelijk om via voice control interactief instructies te geven&quot;" style="rounded=0;whiteSpace=wrap;html=1;" vertex="1" parent="1">
          <mxGeometry x="331" y="60" width="166" height="90" as="geometry" />
        </mxCell>
        <mxCell id="vSiDD781B5HIH5-jRjLo-3" style="edgeStyle=orthogonalEdgeStyle;rounded=0;orthogonalLoop=1;jettySize=auto;html=1;entryX=0;entryY=0.5;entryDx=0;entryDy=0;" edge="1" parent="1" source="vSiDD781B5HIH5-jRjLo-2" target="vSiDD781B5HIH5-jRjLo-1">
          <mxGeometry relative="1" as="geometry">
            <Array as="points">
              <mxPoint x="151" y="105" />
            </Array>
          </mxGeometry>
        </mxCell>
        <mxCell id="vSiDD781B5HIH5-jRjLo-2" value="Voice control capability" style="rounded=0;whiteSpace=wrap;html=1;" vertex="1" parent="1">
          <mxGeometry x="91" y="180" width="120" height="60" as="geometry" />
        </mxCell>
        <mxCell id="vSiDD781B5HIH5-jRjLo-5" style="edgeStyle=orthogonalEdgeStyle;rounded=0;orthogonalLoop=1;jettySize=auto;html=1;entryX=1;entryY=0.5;entryDx=0;entryDy=0;" edge="1" parent="1" source="vSiDD781B5HIH5-jRjLo-4" target="vSiDD781B5HIH5-jRjLo-1">
          <mxGeometry relative="1" as="geometry">
            <Array as="points">
              <mxPoint x="740" y="105" />
            </Array>
          </mxGeometry>
        </mxCell>
        <mxCell id="vSiDD781B5HIH5-jRjLo-4" value="Javascript application" style="rounded=0;whiteSpace=wrap;html=1;" vertex="1" parent="1">
          <mxGeometry x="680" y="150" width="120" height="60" as="geometry" />
        </mxCell>
        <mxCell id="vSiDD781B5HIH5-jRjLo-15" style="edgeStyle=orthogonalEdgeStyle;rounded=0;orthogonalLoop=1;jettySize=auto;html=1;entryX=1;entryY=0.5;entryDx=0;entryDy=0;" edge="1" parent="1" source="vSiDD781B5HIH5-jRjLo-6" target="vSiDD781B5HIH5-jRjLo-4">
          <mxGeometry relative="1" as="geometry">
            <Array as="points">
              <mxPoint x="1010" y="180" />
            </Array>
          </mxGeometry>
        </mxCell>
        <mxCell id="vSiDD781B5HIH5-jRjLo-6" value="Front-end" style="rounded=0;whiteSpace=wrap;html=1;" vertex="1" parent="1">
          <mxGeometry x="947" y="270" width="120" height="60" as="geometry" />
        </mxCell>
        <mxCell id="vSiDD781B5HIH5-jRjLo-14" style="edgeStyle=orthogonalEdgeStyle;rounded=0;orthogonalLoop=1;jettySize=auto;html=1;entryX=0.5;entryY=1;entryDx=0;entryDy=0;" edge="1" parent="1" source="vSiDD781B5HIH5-jRjLo-7" target="vSiDD781B5HIH5-jRjLo-4">
          <mxGeometry relative="1" as="geometry" />
        </mxCell>
        <mxCell id="vSiDD781B5HIH5-jRjLo-7" value="Back-end" style="rounded=0;whiteSpace=wrap;html=1;" vertex="1" parent="1">
          <mxGeometry x="680" y="270" width="120" height="60" as="geometry" />
        </mxCell>
        <mxCell id="vSiDD781B5HIH5-jRjLo-13" style="edgeStyle=orthogonalEdgeStyle;rounded=0;orthogonalLoop=1;jettySize=auto;html=1;entryX=0;entryY=0.5;entryDx=0;entryDy=0;" edge="1" parent="1" source="vSiDD781B5HIH5-jRjLo-8" target="vSiDD781B5HIH5-jRjLo-7">
          <mxGeometry relative="1" as="geometry" />
        </mxCell>
        <mxCell id="vSiDD781B5HIH5-jRjLo-8" value="Data transfer" style="rounded=0;whiteSpace=wrap;html=1;" vertex="1" parent="1">
          <mxGeometry x="574" y="400" width="120" height="60" as="geometry" />
        </mxCell>
        <mxCell id="vSiDD781B5HIH5-jRjLo-12" style="edgeStyle=orthogonalEdgeStyle;rounded=0;orthogonalLoop=1;jettySize=auto;html=1;entryX=0;entryY=0.5;entryDx=0;entryDy=0;" edge="1" parent="1" source="vSiDD781B5HIH5-jRjLo-9" target="vSiDD781B5HIH5-jRjLo-8">
          <mxGeometry relative="1" as="geometry" />
        </mxCell>
        <mxCell id="vSiDD781B5HIH5-jRjLo-9" value="Server-client communication" style="rounded=0;whiteSpace=wrap;html=1;" vertex="1" parent="1">
          <mxGeometry x="470" y="525" width="120" height="60" as="geometry" />
        </mxCell>
        <mxCell id="vSiDD781B5HIH5-jRjLo-11" style="edgeStyle=orthogonalEdgeStyle;rounded=0;orthogonalLoop=1;jettySize=auto;html=1;entryX=1;entryY=0.5;entryDx=0;entryDy=0;" edge="1" parent="1" source="vSiDD781B5HIH5-jRjLo-10" target="vSiDD781B5HIH5-jRjLo-8">
          <mxGeometry relative="1" as="geometry" />
        </mxCell>
        <mxCell id="vSiDD781B5HIH5-jRjLo-10" value="Data storage per user" style="rounded=0;whiteSpace=wrap;html=1;" vertex="1" parent="1">
          <mxGeometry x="694" y="520" width="120" height="60" as="geometry" />
        </mxCell>
        <mxCell id="vSiDD781B5HIH5-jRjLo-17" style="edgeStyle=orthogonalEdgeStyle;rounded=0;orthogonalLoop=1;jettySize=auto;html=1;entryX=1;entryY=0.5;entryDx=0;entryDy=0;" edge="1" parent="1" source="vSiDD781B5HIH5-jRjLo-16" target="vSiDD781B5HIH5-jRjLo-2">
          <mxGeometry relative="1" as="geometry">
            <Array as="points">
              <mxPoint x="230" y="210" />
            </Array>
          </mxGeometry>
        </mxCell>
        <mxCell id="vSiDD781B5HIH5-jRjLo-16" value="Speech recognition" style="rounded=0;whiteSpace=wrap;html=1;" vertex="1" parent="1">
          <mxGeometry x="170" y="310" width="120" height="60" as="geometry" />
        </mxCell>
        <mxCell id="vSiDD781B5HIH5-jRjLo-19" style="edgeStyle=orthogonalEdgeStyle;rounded=0;orthogonalLoop=1;jettySize=auto;html=1;entryX=0;entryY=0.5;entryDx=0;entryDy=0;" edge="1" parent="1" source="vSiDD781B5HIH5-jRjLo-18" target="vSiDD781B5HIH5-jRjLo-16">
          <mxGeometry relative="1" as="geometry" />
        </mxCell>
        <mxCell id="vSiDD781B5HIH5-jRjLo-18" value="Translation to functions" style="rounded=0;whiteSpace=wrap;html=1;" vertex="1" parent="1">
          <mxGeometry x="50" y="440" width="120" height="60" as="geometry" />
        </mxCell>
        <mxCell id="vSiDD781B5HIH5-jRjLo-21" style="edgeStyle=orthogonalEdgeStyle;rounded=0;orthogonalLoop=1;jettySize=auto;html=1;entryX=0;entryY=0.5;entryDx=0;entryDy=0;" edge="1" parent="1" source="vSiDD781B5HIH5-jRjLo-20" target="vSiDD781B5HIH5-jRjLo-2">
          <mxGeometry relative="1" as="geometry">
            <Array as="points">
              <mxPoint x="-20" y="210" />
            </Array>
          </mxGeometry>
        </mxCell>
        <mxCell id="vSiDD781B5HIH5-jRjLo-20" value="Audio feedback" style="rounded=0;whiteSpace=wrap;html=1;" vertex="1" parent="1">
          <mxGeometry x="-80" y="310" width="120" height="60" as="geometry" />
        </mxCell>
        <mxCell id="vSiDD781B5HIH5-jRjLo-23" style="edgeStyle=orthogonalEdgeStyle;rounded=0;orthogonalLoop=1;jettySize=auto;html=1;entryX=1;entryY=0.5;entryDx=0;entryDy=0;" edge="1" parent="1" source="vSiDD781B5HIH5-jRjLo-22" target="vSiDD781B5HIH5-jRjLo-7">
          <mxGeometry relative="1" as="geometry">
            <Array as="points">
              <mxPoint x="887" y="300" />
            </Array>
          </mxGeometry>
        </mxCell>
        <mxCell id="vSiDD781B5HIH5-jRjLo-22" value="Web page hosting&lt;br&gt;(in case of rented server)" style="rounded=0;whiteSpace=wrap;html=1;" vertex="1" parent="1">
          <mxGeometry x="827" y="400" width="120" height="60" as="geometry" />
        </mxCell>
        <mxCell id="vSiDD781B5HIH5-jRjLo-25" style="edgeStyle=orthogonalEdgeStyle;rounded=0;orthogonalLoop=1;jettySize=auto;html=1;entryX=1;entryY=0.5;entryDx=0;entryDy=0;" edge="1" parent="1" source="vSiDD781B5HIH5-jRjLo-24" target="vSiDD781B5HIH5-jRjLo-16">
          <mxGeometry relative="1" as="geometry" />
        </mxCell>
        <mxCell id="vSiDD781B5HIH5-jRjLo-24" value="Text interpretation via AI (optional)" style="rounded=0;whiteSpace=wrap;html=1;" vertex="1" parent="1">
          <mxGeometry x="290" y="440" width="120" height="60" as="geometry" />
        </mxCell>
        <mxCell id="vSiDD781B5HIH5-jRjLo-27" style="edgeStyle=orthogonalEdgeStyle;rounded=0;orthogonalLoop=1;jettySize=auto;html=1;entryX=0;entryY=0.5;entryDx=0;entryDy=0;" edge="1" parent="1" source="vSiDD781B5HIH5-jRjLo-26" target="vSiDD781B5HIH5-jRjLo-10">
          <mxGeometry relative="1" as="geometry">
            <mxPoint x="670" y="540" as="targetPoint" />
            <Array as="points">
              <mxPoint x="650" y="550" />
            </Array>
          </mxGeometry>
        </mxCell>
        <mxCell id="vSiDD781B5HIH5-jRjLo-26" value="Data categorization" style="rounded=0;whiteSpace=wrap;html=1;" vertex="1" parent="1">
          <mxGeometry x="590" y="650" width="120" height="60" as="geometry" />
        </mxCell>
        <mxCell id="vSiDD781B5HIH5-jRjLo-29" style="edgeStyle=orthogonalEdgeStyle;rounded=0;orthogonalLoop=1;jettySize=auto;html=1;entryX=1;entryY=0.5;entryDx=0;entryDy=0;" edge="1" parent="1" source="vSiDD781B5HIH5-jRjLo-28" target="vSiDD781B5HIH5-jRjLo-10">
          <mxGeometry relative="1" as="geometry">
            <Array as="points">
              <mxPoint x="860" y="550" />
            </Array>
          </mxGeometry>
        </mxCell>
        <mxCell id="vSiDD781B5HIH5-jRjLo-28" value="User accounts" style="rounded=0;whiteSpace=wrap;html=1;" vertex="1" parent="1">
          <mxGeometry x="800" y="650" width="120" height="60" as="geometry" />
        </mxCell>
      </root>
    </mxGraphModel>
  </diagram>
</mxfile>
